<?xml version="1.0" encoding="UTF-8"?>
<!DOCTYPE svg PUBLIC "-//W3C//DTD SVG 1.1//EN" "http://www.w3.org/Graphics/SVG/1.1/DTD/svg11.dtd">
<!-- Creator: CorelDRAW 2018 (64-Bit Evaluation Version) -->
<svg xmlns="http://www.w3.org/2000/svg" xml:space="preserve" width="41.4433mm" height="42.9227mm" version="1.1" style="shape-rendering:geometricPrecision; text-rendering:geometricPrecision; image-rendering:optimizeQuality; fill-rule:evenodd; clip-rule:evenodd"
viewBox="0 0 533.02 552.05"
 xmlns:xlink="http://www.w3.org/1999/xlink">
 <defs>
  <style type="text/css">
   <![CDATA[
    .fil0 {fill:white}
   ]]>
  </style>
 </defs>
 <g id="Layer_x0020_1">
  <metadata id="CorelCorpID_0Corel-Layer"/>
  <g id="_2587429985632">
   <path class="fil0" d="M190.36 38.08l152.29 0 0 361.69 -152.29 0 0 -152.29 57.11 0 0 -57.11 -57.11 0 0 -152.29zm-38.07 399.76l228.44 0 0 -437.83 -228.44 0 0 437.83z"/>
   <polygon class="fil0" points="57.11,399.76 19.04,399.76 19.04,418.8 -0,418.8 -0,475.91 38.08,475.91 38.08,494.95 95.18,494.95 95.18,513.98 228.44,513.98 228.44,552.05 285.55,552.05 285.55,533.02 323.62,533.02 323.62,513.98 361.69,513.98 361.69,494.95 323.62,494.95 323.62,475.91 285.55,475.91 285.55,456.88 228.44,456.88 228.44,475.91 95.18,475.91 95.18,456.88 38.08,456.88 38.08,418.8 114.22,418.8 114.22,380.73 57.11,380.73 "/>
   <polygon class="fil0" points="418.81,418.8 475.91,418.8 475.91,437.83 494.95,437.83 494.95,456.88 475.91,456.88 475.91,475.91 380.73,475.91 380.73,513.98 475.91,513.98 475.91,494.95 513.99,494.95 513.99,475.91 533.02,475.91 533.02,418.8 513.99,418.8 513.99,399.76 475.91,399.76 475.91,380.73 418.81,380.73 "/>
  </g>
 </g>
</svg>
